<svg width="184" height="41" viewBox="0 0 184 41" fill="none" xmlns="http://www.w3.org/2000/svg">
<path d="M66.446 10.3116V25.4063H63.1193V23.4543C61.9491 24.8997 60.2121 25.6 58.1734 25.6C53.8163 25.6 50.6294 22.5453 50.6294 17.8515C50.6294 13.1577 53.8163 10.1328 58.1734 10.1328C60.0723 10.1328 61.7504 10.781 62.95 12.137V10.2967H66.4387L66.446 10.3116ZM63.0089 17.859C63.0089 14.9756 61.11 13.1354 58.5708 13.1354C56.0316 13.1354 54.1548 14.9756 54.1548 17.859C54.1548 20.7423 56.0537 22.5826 58.5708 22.5826C61.088 22.5826 63.0089 20.7423 63.0089 17.859Z" fill="white"/>
<path d="M85.604 10.3116V25.4063H82.2773V23.4543C81.107 24.8997 79.3701 25.6 77.3314 25.6C72.9742 25.6 69.7874 22.5453 69.7874 17.8515C69.7874 13.1577 72.9742 10.1328 77.3314 10.1328C79.2302 10.1328 80.9083 10.781 82.108 12.137V10.2967H85.5966L85.604 10.3116ZM82.1669 17.859C82.1669 14.9756 80.268 13.1354 77.7288 13.1354C75.1896 13.1354 73.3128 14.9756 73.3128 17.859C73.3128 20.7423 75.2117 22.5826 77.7288 22.5826C80.2459 22.5826 82.1669 20.7423 82.1669 17.859Z" fill="white"/>
<path d="M98.8153 10.1406V13.5082C98.5062 13.4486 98.256 13.4263 98.0057 13.4263C95.3488 13.4263 93.678 15.0058 93.678 18.0903V25.4141H90.1894V10.312H93.5161V12.5173C94.5244 10.9304 96.335 10.1406 98.8227 10.1406H98.8153Z" fill="white"/>
<path d="M116.251 4.43359V25.4142H112.902V23.4621C111.732 24.9075 109.995 25.6079 107.956 25.6079C103.629 25.6079 100.412 22.5532 100.412 17.8594C100.412 13.1656 103.621 10.1407 107.956 10.1407C109.885 10.1407 111.585 10.7889 112.763 12.1746V4.43359H116.251ZM112.814 17.8668C112.814 14.9835 110.886 13.1432 108.376 13.1432C105.866 13.1432 103.938 14.9835 103.938 17.8668C103.938 20.7501 105.866 22.5904 108.376 22.5904C110.886 22.5904 112.814 20.7501 112.814 17.8668Z" fill="white"/>
<path d="M134.798 10.3125L128.403 25.4072H124.796L118.4 10.3125H122.029L126.666 21.5106L131.442 10.3125H134.791H134.798Z" fill="white"/>
<path d="M151.137 10.3116V25.4063H147.811V23.4543C146.64 24.8997 144.904 25.6 142.865 25.6C138.508 25.6 135.321 22.5453 135.321 17.8515C135.321 13.1577 138.508 10.1328 142.865 10.1328C144.764 10.1328 146.442 10.781 147.641 12.137V10.2967H151.13L151.137 10.3116ZM147.7 17.859C147.7 14.9756 145.801 13.1354 143.262 13.1354C140.723 13.1354 138.846 14.9756 138.846 17.859C138.846 20.7423 140.745 22.5826 143.262 22.5826C145.779 22.5826 147.7 20.7423 147.7 17.859Z" fill="white"/>
<path d="M164.349 10.1406V13.5082C164.04 13.4486 163.789 13.4263 163.539 13.4263C160.882 13.4263 159.211 15.0058 159.211 18.0903V25.4141H155.723V10.312H159.05V12.5173C160.058 10.9304 161.868 10.1406 164.356 10.1406H164.349Z" fill="white"/>
<path d="M173.402 18.9322L170.803 21.4207V25.4067H167.315V4.43359H170.803V17.0994L178.038 10.312H182.226L176 16.6449L182.815 25.4067H178.568L173.402 18.9322Z" fill="white"/>
<path d="M12.35 33.6011C12.7032 37.1774 9.74451 40.1799 6.20435 39.8223C3.58419 39.5541 1.47187 37.4158 1.20691 34.7634C0.853634 31.1872 3.81235 28.1846 7.35251 28.5423C9.97267 28.8105 12.085 30.9488 12.35 33.6011ZM38.7208 16.927C38.7208 16.927 37.8744 16.0255 36.844 15.3922C33.8191 13.2762 33.5247 9.02201 33.532 7.22644C33.532 6.54845 33.51 5.863 33.429 5.19246L33.4143 5.08815C33.3112 4.16429 32.958 3.28513 32.325 2.60714C31.5007 1.71308 30.3231 1.1543 29.0204 1.1543H17.5461C15.0437 1.1543 13.0124 3.21063 13.0124 5.74379V7.36055C13.0124 9.89371 15.0437 11.95 17.5461 11.95H24.1628C24.2069 11.95 24.2437 11.95 24.2879 11.95H27.4527C28.5861 11.95 29.5061 12.8814 29.5061 14.0287V15.8168C29.5061 16.9642 28.5861 17.8955 27.4527 17.8955H24.5013C21.5647 18.0073 18.5029 17.1281 15.3823 15.2953C15.3676 15.2879 15.3528 15.2804 15.3455 15.273C13.638 14.282 11.5624 14.2597 9.75923 15.273C9.35443 15.5039 8.97907 15.787 8.64787 16.1223C5.91731 18.9088 6.66803 23.2971 9.78131 25.1001C10.5394 25.5397 11.3784 25.7856 12.2175 25.8377C13.1154 25.8973 14.0133 25.6738 14.8156 25.2715C15.3308 25.0107 15.9564 24.6904 16.0741 24.5935C16.0741 24.5935 22.9778 20.6001 30.8015 24.9362C30.9045 25.0033 31.3829 25.2119 31.8024 25.3907C32.4869 25.6887 33.2303 25.8601 33.9736 25.8452C34.1797 25.8452 34.3932 25.8228 34.6066 25.8005C37.5064 25.428 39.6114 22.8128 39.5672 19.855C39.5525 18.8119 39.5157 17.821 38.7208 16.9344V16.927Z" fill="url(#paint0_linear_529_951)"/>
<defs>
<linearGradient id="paint0_linear_529_951" x1="9.57523" y1="42.3555" x2="32.7895" y2="2.63673" gradientUnits="userSpaceOnUse">
<stop stop-color="#00F2B1"/>
<stop offset="0.38" stop-color="#DB00FB"/>
<stop offset="0.84" stop-color="#FF6000"/>
</linearGradient>
</defs>
</svg>
