<svg width="32" height="32" viewBox="0 0 32 32" fill="none" xmlns="http://www.w3.org/2000/svg">
<circle cx="16" cy="16" r="16" fill="#2A9D8F"/>
<path d="M19.4889 18.2187C19.3781 17.4657 19.001 16.7773 18.4261 16.2785C17.8513 15.7797 17.1167 15.5035 16.3556 15.5H15.6462C14.8851 15.5035 14.1505 15.7797 13.5756 16.2785C13.0008 16.7773 12.6237 17.4657 12.5129 18.2187L12.1729 20.596C12.162 20.6728 12.1692 20.7512 12.1939 20.8248C12.2185 20.8984 12.2599 20.9652 12.3149 21.02C12.4482 21.1533 13.2662 21.8333 16.0016 21.8333C18.7369 21.8333 19.5529 21.156 19.6882 21.02C19.7432 20.9652 19.7846 20.8984 19.8093 20.8248C19.8339 20.7512 19.8411 20.6728 19.8302 20.596L19.4889 18.2187Z" fill="white"/>
<path d="M13.0393 15.8668C12.3949 16.4607 11.9757 17.2591 11.8526 18.1268L11.6059 19.8334C9.62592 19.8201 9.02592 19.1001 8.92592 18.9534C8.88726 18.9001 8.85968 18.8396 8.84479 18.7755C8.82991 18.7114 8.82802 18.6449 8.83925 18.5801L8.98592 17.7534C9.06233 17.3214 9.2418 16.9141 9.5091 16.5662C9.7764 16.2183 10.1237 15.94 10.5214 15.7549C10.9192 15.5697 11.3557 15.4832 11.794 15.5027C12.2323 15.5222 12.6595 15.6471 13.0393 15.8668Z" fill="white"/>
<path d="M23.1609 18.5801C23.1722 18.6449 23.1703 18.7114 23.1554 18.7755C23.1405 18.8396 23.1129 18.9001 23.0743 18.9534C22.9743 19.1001 22.3743 19.8201 20.3943 19.8334L20.1476 18.1268C20.0245 17.2591 19.6053 16.4607 18.9609 15.8668C19.3407 15.6471 19.7679 15.5222 20.2062 15.5027C20.6445 15.4832 21.081 15.5697 21.4788 15.7549C21.8765 15.94 22.2238 16.2183 22.4911 16.5662C22.7584 16.9141 22.9379 17.3214 23.0143 17.7534L23.1609 18.5801Z" fill="white"/>
<path d="M13.154 14.4C12.9862 14.638 12.7634 14.832 12.5046 14.9654C12.2457 15.0989 11.9585 15.1679 11.6673 15.1667C11.3768 15.1667 11.0905 15.0976 10.8319 14.9653C10.5733 14.8329 10.3499 14.641 10.18 14.4053C10.0102 14.1696 9.89876 13.897 9.85495 13.6098C9.81114 13.3226 9.8362 13.0292 9.92807 12.7536C10.0199 12.478 10.176 12.2282 10.3833 12.0247C10.5907 11.8213 10.8434 11.67 11.1207 11.5834C11.398 11.4968 11.6919 11.4773 11.9781 11.5265C12.2644 11.5758 12.5349 11.6924 12.7673 11.8667C12.7005 12.1281 12.6669 12.3969 12.6673 12.6667C12.6678 13.2781 12.8362 13.8777 13.154 14.4Z" fill="white"/>
<path d="M22.1657 13.3333C22.1659 13.5741 22.1186 13.8126 22.0265 14.0351C21.9344 14.2576 21.7994 14.4598 21.6291 14.6301C21.4588 14.8004 21.2567 14.9354 21.0342 15.0275C20.8117 15.1195 20.5732 15.1668 20.3324 15.1667C20.0412 15.1679 19.7539 15.0989 19.4951 14.9654C19.2363 14.832 19.0135 14.638 18.8457 14.4C19.1635 13.8777 19.3319 13.2781 19.3324 12.6667C19.3328 12.3969 19.2992 12.1281 19.2324 11.8667C19.5047 11.6624 19.8286 11.538 20.1677 11.5074C20.5068 11.4768 20.8477 11.5413 21.1523 11.6936C21.4568 11.8458 21.7129 12.0799 21.8919 12.3695C22.0709 12.6591 22.1657 12.9929 22.1657 13.3333Z" fill="white"/>
<path d="M16 15.166C17.3807 15.166 18.5 14.0467 18.5 12.666C18.5 11.2853 17.3807 10.166 16 10.166C14.6193 10.166 13.5 11.2853 13.5 12.666C13.5 14.0467 14.6193 15.166 16 15.166Z" fill="white"/>
</svg>
