<svg width="32" height="32" viewBox="0 0 32 32" fill="none" xmlns="http://www.w3.org/2000/svg">
<circle cx="16" cy="16" r="16" fill="#E9C46A"/>
<g clip-path="url(#clip0_1270_13044)">
<path d="M16 8.40039C11.5888 8.40039 8.00002 11.6303 8.00002 15.6004C8.00002 16.9881 8.43895 18.3324 9.27149 19.4948C9.11389 21.238 8.69149 22.5321 8.07815 23.1452C7.99709 23.2263 7.97682 23.3503 8.02802 23.4527C8.07335 23.5441 8.16669 23.6004 8.26669 23.6004C8.27895 23.6004 8.29122 23.5996 8.30375 23.5977C8.41175 23.5825 10.9206 23.2215 12.7352 22.174C13.7656 22.5897 14.8632 22.8004 16 22.8004C20.4112 22.8004 24 19.5705 24 15.6004C24 11.6303 20.4112 8.40039 16 8.40039ZM12.2667 16.6671C11.6784 16.6671 11.2 16.1887 11.2 15.6004C11.2 15.0121 11.6784 14.5337 12.2667 14.5337C12.855 14.5337 13.3334 15.0121 13.3334 15.6004C13.3334 16.1887 12.855 16.6671 12.2667 16.6671ZM16 16.6671C15.4118 16.6671 14.9334 16.1887 14.9334 15.6004C14.9334 15.0121 15.4118 14.5337 16 14.5337C16.5883 14.5337 17.0667 15.0121 17.0667 15.6004C17.0667 16.1887 16.5883 16.6671 16 16.6671ZM19.7334 16.6671C19.1451 16.6671 18.6667 16.1887 18.6667 15.6004C18.6667 15.0121 19.1451 14.5337 19.7334 14.5337C20.3216 14.5337 20.8 15.0121 20.8 15.6004C20.8 16.1887 20.3216 16.6671 19.7334 16.6671Z" fill="white"/>
</g>
<defs>
<clipPath id="clip0_1270_13044">
<rect width="16" height="16" fill="white" transform="translate(8 8)"/>
</clipPath>
</defs>
</svg>
