<svg width="32" height="32" viewBox="0 0 32 32" fill="none" xmlns="http://www.w3.org/2000/svg">
<circle cx="16" cy="16" r="16" fill="#F15BB5"/>
<path d="M22.2533 19.2753C21.2453 18.4233 20.6673 17.178 20.6673 15.8587V14C20.6673 11.654 18.9247 9.712 16.6673 9.38667V8.66667C16.6673 8.298 16.3687 8 16.0007 8C15.6327 8 15.334 8.298 15.334 8.66667V9.38667C13.076 9.712 11.334 11.654 11.334 14V15.8587C11.334 17.178 10.756 18.4233 9.74198 19.2807C9.48265 19.5027 9.33398 19.8253 9.33398 20.1667C9.33398 20.81 9.85732 21.3333 10.5007 21.3333H21.5007C22.144 21.3333 22.6673 20.81 22.6673 20.1667C22.6673 19.8253 22.5187 19.5027 22.2533 19.2753Z" fill="white"/>
<path d="M16.0001 24C17.2074 24 18.2174 23.1393 18.4494 22H13.5508C13.7828 23.1393 14.7928 24 16.0001 24Z" fill="white"/>
</svg>
