<svg width="32" height="32" viewBox="0 0 32 32" fill="none" xmlns="http://www.w3.org/2000/svg">
<circle cx="16" cy="16" r="16" fill="#669BBC"/>
<g clip-path="url(#clip0_1270_13331)">
<path d="M16 8C11.5887 8 8 11.5887 8 16C8 20.4113 11.5887 24 16 24C20.4113 24 24 20.4113 24 16C24 11.5887 20.4113 8 16 8ZM20.6593 14.696L19.9347 18.918C19.8933 19.158 19.6853 19.3333 19.442 19.3333H12.558C12.3147 19.3333 12.1067 19.158 12.0653 18.918L11.3407 14.696C11.3087 14.5113 11.3833 14.324 11.5333 14.2113C11.684 14.098 11.8833 14.08 12.0527 14.162L13.982 15.1013L15.5633 12.2567C15.7393 11.9387 16.2613 11.9387 16.4373 12.2567L18.0187 15.1013L19.948 14.162C20.1167 14.08 20.3167 14.098 20.4673 14.2113C20.6167 14.324 20.6913 14.5113 20.6593 14.696Z" fill="white"/>
</g>
<defs>
<clipPath id="clip0_1270_13331">
<rect width="16" height="16" fill="white" transform="translate(8 8)"/>
</clipPath>
</defs>
</svg>
