<svg width="32" height="32" viewBox="0 0 32 32" fill="none" xmlns="http://www.w3.org/2000/svg">
<circle cx="16" cy="16" r="16" fill="#2A9D8F"/>
<g clip-path="url(#clip0_1270_13025)">
<path d="M24 18.2765C24 19.4674 23.0309 20.4365 21.84 20.4365C20.6728 20.4365 19.7197 19.5059 19.6816 18.348L18.6334 18.1512C18.4387 18.7571 18.0941 19.2968 17.6431 19.7259L18.3694 20.7099C18.5475 20.6449 18.7397 20.6093 18.94 20.6093C19.8581 20.6093 20.6047 21.3559 20.6047 22.274C20.6047 23.1918 19.8581 23.9387 18.94 23.9387C18.0222 23.9387 17.2753 23.1918 17.2753 22.274C17.2753 21.8959 17.4022 21.5471 17.6153 21.2674L16.8894 20.283C16.3453 20.5887 15.7184 20.7634 15.0516 20.7634C13.9147 20.7634 12.8944 20.2565 12.2038 19.4571L11.2547 20.0884C11.3031 20.2446 11.3294 20.4105 11.3294 20.5824C11.3294 21.5005 10.5828 22.2471 9.66469 22.2471C8.74687 22.2471 8 21.5005 8 20.5824C8 19.6646 8.74687 18.9177 9.66469 18.9177C10.0719 18.9177 10.445 19.0649 10.7344 19.3084L11.6837 18.6771C11.4316 18.1721 11.2894 17.603 11.2894 17.0015C11.2894 15.9424 11.7294 14.9846 12.4359 14.3002L11.0512 12.4574C10.7794 12.5812 10.4778 12.6509 10.16 12.6509C8.96906 12.6509 8 11.6818 8 10.4905C8 9.29961 8.96906 8.33055 10.16 8.33055C11.3513 8.33055 12.3203 9.29961 12.3203 10.4905C12.3203 11.0259 12.1241 11.5159 11.8003 11.8937L13.1847 13.7362C13.735 13.4202 14.3725 13.2393 15.0516 13.2393C15.2228 13.2393 15.3916 13.2512 15.5569 13.2734L15.965 11.7374C15.485 11.4449 15.1634 10.9165 15.1634 10.3143C15.1634 9.39648 15.9103 8.64961 16.8281 8.64961C17.7463 8.64961 18.4928 9.39648 18.4928 10.3143C18.4928 11.218 17.7694 11.9552 16.8713 11.978L16.4628 13.5143C16.77 13.639 17.0572 13.8034 17.3178 14.0009L19.845 11.404C19.6216 11.064 19.4909 10.6574 19.4909 10.2205C19.4909 9.02961 20.4597 8.06055 21.6509 8.06055C22.8419 8.06055 23.8109 9.02961 23.8109 10.2205C23.8109 11.4118 22.8419 12.3809 21.6509 12.3809C21.235 12.3809 20.8466 12.2624 20.5169 12.058L17.9897 14.6546C18.5047 15.2987 18.8134 16.1146 18.8134 17.0015C18.8134 17.078 18.8109 17.154 18.8062 17.2296L19.8541 17.4265C20.185 16.6568 20.9503 16.1162 21.84 16.1162C23.0309 16.1162 24 17.0852 24 18.2765Z" fill="white"/>
</g>
<defs>
<clipPath id="clip0_1270_13025">
<rect width="16" height="16" fill="white" transform="translate(8 8)"/>
</clipPath>
</defs>
</svg>
