<svg width="32" height="32" viewBox="0 0 32 32" fill="none" xmlns="http://www.w3.org/2000/svg">
<circle cx="16" cy="16" r="16" fill="#F15BB5"/>
<g clip-path="url(#clip0_1270_13011)">
<path d="M16.0015 11.916C13.7465 11.916 11.918 13.744 11.918 15.9995C11.918 18.255 13.7465 20.0825 16.0015 20.0825C18.2565 20.0825 20.085 18.2545 20.085 15.999C20.085 13.7435 18.2565 11.916 16.0015 11.916ZM17.434 16.3415L16.3435 17.432C16.1545 17.621 15.8485 17.621 15.6595 17.432L14.569 16.3415C14.38 16.1525 14.38 15.8465 14.569 15.6575L15.6595 14.567C15.8485 14.378 16.1545 14.378 16.3435 14.567L17.434 15.6575C17.623 15.846 17.623 16.1525 17.434 16.3415Z" fill="white"/>
<path d="M13.9344 9.78553C15.2549 9.33903 16.7419 9.33753 18.0699 9.78703C18.5514 9.94503 19.1429 10.267 19.5694 10.533C19.3734 11.058 19.4834 11.6715 19.9054 12.0935C20.4819 12.6705 21.4173 12.6705 21.9938 12.0935C22.5708 11.517 22.5708 10.5815 21.9938 10.005C21.4868 9.49803 20.7039 9.43753 20.1299 9.82153C19.6369 9.50703 18.9394 9.12403 18.3539 8.93253C16.8474 8.42353 15.1524 8.42353 13.6459 8.93253C13.4104 9.01203 13.2839 9.26753 13.3639 9.50303C13.4434 9.73803 13.6979 9.86503 13.9344 9.78553Z" fill="white"/>
<path d="M18.0665 22.2135C16.746 22.66 15.259 22.6615 13.931 22.212C13.5295 22.0805 12.911 21.7665 12.427 21.481C12.6305 20.9525 12.5215 20.3315 12.0955 19.905C11.5185 19.3285 10.5835 19.3285 10.007 19.905C9.42997 20.482 9.42997 21.417 10.007 21.9935C10.509 22.4955 11.282 22.5595 11.8545 22.1875C12.3975 22.517 13.1355 22.898 13.647 23.0655C14.4 23.32 15.192 23.4495 16.001 23.4495C16.81 23.4495 17.602 23.32 18.355 23.0655C18.5905 22.986 18.717 22.7305 18.637 22.495C18.557 22.26 18.3025 22.1335 18.0665 22.2135Z" fill="white"/>
<path d="M23.4499 16.0001C23.4499 15.1906 23.3209 14.3986 23.0659 13.6461C22.9859 13.4101 22.7309 13.2836 22.4954 13.3641C22.2599 13.4436 22.1339 13.6991 22.2134 13.9346C22.4364 14.5941 22.5499 15.2896 22.5499 16.0006C22.5499 16.7116 22.4364 17.4071 22.2119 18.0706C22.0694 18.5061 21.7819 19.1156 21.5094 19.5841C20.9754 19.3656 20.3389 19.4726 19.9054 19.9061C19.3284 20.4831 19.3284 21.4181 19.9054 21.9946C20.4819 22.5716 21.4174 22.5716 21.9939 21.9946C22.4869 21.5016 22.5549 20.7491 22.2054 20.1801C22.5339 19.6421 22.8914 18.8886 23.0659 18.3546C23.3209 17.6016 23.4499 16.8096 23.4499 16.0001Z" fill="white"/>
<path d="M9.78728 18.065C9.56378 17.405 9.45078 16.71 9.45078 15.999C9.45078 15.288 9.56428 14.5925 9.78878 13.929C9.92178 13.522 10.2353 12.9025 10.5173 12.4245C11.0463 12.6295 11.6683 12.5205 12.0953 12.0935C12.6718 11.517 12.6718 10.5815 12.0953 10.005C11.5183 9.42802 10.5833 9.42802 10.0068 10.005C9.50528 10.506 9.44078 11.278 9.81128 11.85C9.48528 12.3865 9.10428 13.126 8.93478 13.645C8.67978 14.3975 8.55078 15.1895 8.55078 15.999C8.55078 16.8085 8.67978 17.6005 8.93478 18.353C8.99828 18.541 9.17328 18.659 9.36128 18.659C9.40928 18.659 9.45778 18.651 9.50578 18.635C9.74028 18.5555 9.86678 18.3 9.78728 18.065Z" fill="white"/>
</g>
<defs>
<clipPath id="clip0_1270_13011">
<rect width="16" height="16" fill="white" transform="translate(8 8)"/>
</clipPath>
</defs>
</svg>
