<svg width="39" height="39" viewBox="0 0 39 39" fill="none" xmlns="http://www.w3.org/2000/svg">
<path d="M11.35 32.6011C11.7032 36.1774 8.74451 39.1799 5.20435 38.8223C2.58419 38.5541 0.471874 36.4158 0.206914 33.7634C-0.146366 30.1872 2.81235 27.1846 6.35251 27.5423C8.97267 27.8105 11.085 29.9488 11.35 32.6011ZM37.7208 15.927C37.7208 15.927 36.8744 15.0255 35.844 14.3922C32.8191 12.2762 32.5247 8.02201 32.532 6.22644C32.532 5.54845 32.51 4.863 32.429 4.19246L32.4143 4.08815C32.3112 3.16429 31.958 2.28513 31.325 1.60714C30.5007 0.713083 29.3231 0.154297 28.0204 0.154297H16.5461C14.0437 0.154297 12.0124 2.21063 12.0124 4.74379V6.36055C12.0124 8.89371 14.0437 10.95 16.5461 10.95H23.1628C23.2069 10.95 23.2437 10.95 23.2879 10.95H26.4527C27.5861 10.95 28.5061 11.8814 28.5061 13.0287V14.8168C28.5061 15.9642 27.5861 16.8955 26.4527 16.8955H23.5013C20.5647 17.0073 17.5029 16.1281 14.3823 14.2953C14.3676 14.2879 14.3528 14.2804 14.3455 14.273C12.638 13.282 10.5624 13.2597 8.75923 14.273C8.35443 14.5039 7.97907 14.787 7.64787 15.1223C4.91731 17.9088 5.66803 22.2971 8.78131 24.1001C9.53939 24.5397 10.3784 24.7856 11.2175 24.8377C12.1154 24.8973 13.0133 24.6738 13.8156 24.2715C14.3308 24.0107 14.9564 23.6904 15.0741 23.5935C15.0741 23.5935 21.9778 19.6001 29.8015 23.9362C29.9045 24.0033 30.3829 24.2119 30.8024 24.3907C31.4869 24.6887 32.2303 24.8601 32.9736 24.8452C33.1797 24.8452 33.3932 24.8228 33.6066 24.8005C36.5064 24.428 38.6114 21.8128 38.5672 18.855C38.5525 17.8119 38.5157 16.821 37.7208 15.9344V15.927Z" fill="url(#paint0_linear_529_961)"/>
<defs>
<linearGradient id="paint0_linear_529_961" x1="8.57523" y1="41.3555" x2="31.7895" y2="1.63673" gradientUnits="userSpaceOnUse">
<stop stop-color="#00F2B1"/>
<stop offset="0.38" stop-color="#DB00FB"/>
<stop offset="0.84" stop-color="#FF6000"/>
</linearGradient>
</defs>
</svg>
