<svg width="56" height="56" viewBox="0 0 56 56" fill="none" xmlns="http://www.w3.org/2000/svg">
<circle cx="28" cy="28" r="28" fill="white"/>
<g clip-path="url(#clip0_1270_13176)">
<path d="M39.3137 16.6863C36.2917 13.6643 32.2738 12 28 12C23.7263 12 19.7083 13.6643 16.6863 16.6863C13.6643 19.7083 12 23.7263 12 28C12 32.2738 13.6643 36.2917 16.6863 39.3137C19.7083 42.3358 23.7263 44 28 44C32.2739 44 36.2917 42.3357 39.3138 39.3137C42.3357 36.2917 44.0001 32.2737 44.0001 28C44.0001 23.7262 42.3358 19.7083 39.3137 16.6863ZM18.0135 18.0135C19.4205 16.6066 21.0721 15.5334 22.8724 14.833C22.3929 15.4316 21.9442 16.1197 21.533 16.8936C21.0555 17.7923 20.6434 18.7794 20.3002 19.8337C19.1113 19.6364 18.0098 19.3938 17.0256 19.109C17.3341 18.7299 17.6631 18.3639 18.0135 18.0135ZM15.8893 20.7241C17.0404 21.0926 18.3568 21.4035 19.7931 21.6496C19.3931 23.3475 19.1577 25.1746 19.1015 27.0616H13.9085C14.056 24.797 14.7361 22.6358 15.8893 20.7241ZM15.7871 35.1024C14.6962 33.2337 14.0516 31.1349 13.9084 28.9385H19.1051C19.1665 30.7715 19.3972 32.5467 19.7837 34.2001C18.3178 34.4377 16.9684 34.7407 15.7871 35.1024ZM18.0135 37.9866C17.6148 37.5877 17.2434 37.169 16.8991 36.7331C17.9193 36.4502 19.0598 36.2107 20.2875 36.0185C20.6331 37.0875 21.0496 38.0876 21.533 38.9974C21.9811 39.8407 22.4738 40.5817 23.0023 41.2165C21.1517 40.5176 19.4543 39.4272 18.0135 37.9866ZM27.0615 41.8822C25.636 41.4829 24.2875 40.1812 23.1905 38.1167C22.8068 37.3947 22.4698 36.607 22.1811 35.7675C23.7268 35.5974 25.3715 35.4968 27.0615 35.4732V41.8822ZM27.0615 33.5961C25.1873 33.6217 23.3605 33.7394 21.6496 33.9403C21.2723 32.3802 21.0452 30.6917 20.9829 28.9385H27.0616V33.5961H27.0615ZM27.0615 27.0615H20.9793C21.0363 25.2594 21.267 23.5237 21.6561 21.924C23.356 22.1365 25.179 22.2657 27.0615 22.3027V27.0615ZM27.0615 20.4255C25.3649 20.3913 23.7238 20.2807 22.1891 20.1002C22.4761 19.2695 22.8105 18.4897 23.1905 17.7743C24.2875 15.7098 25.636 14.408 27.0615 14.0087V20.4255ZM40.1699 20.8238C41.287 22.7108 41.9466 24.8362 42.0917 27.0615H36.8987C36.8431 25.1963 36.6122 23.3897 36.2206 21.7086C37.6664 21.4751 38.9991 21.178 40.1699 20.8238ZM37.9865 18.0135C38.3633 18.3903 38.7153 18.7853 39.0436 19.1954C38.0391 19.4697 36.9204 19.7025 35.7184 19.8899C35.3716 18.8144 34.9532 17.8083 34.4671 16.8936C34.0559 16.1197 33.6072 15.4316 33.1277 14.833C34.9279 15.5334 36.5796 16.6066 37.9865 18.0135ZM28.9385 28.9385H35.0172C34.9545 30.7053 34.7244 32.4067 34.3416 33.9768C32.642 33.7655 30.8198 33.6374 28.9385 33.6014V28.9385ZM28.9385 27.0615V22.309C30.8139 22.2843 32.6421 22.1676 34.3545 21.9675C34.7374 23.5551 34.9643 25.2757 35.0207 27.0615H28.9385ZM28.9384 14.0087H28.9385C30.364 14.408 31.7125 15.7098 32.8095 17.7743C33.1956 18.501 33.5345 19.2941 33.8245 20.1398C32.2768 20.3093 30.6302 20.4091 28.9384 20.4319V14.0087ZM28.9385 41.8822V35.4786C30.6335 35.5119 32.2734 35.6215 33.8075 35.8009C33.5213 36.6279 33.188 37.4042 32.8095 38.1167C31.7125 40.1812 30.364 41.4829 28.9385 41.8822ZM37.9865 37.9866C36.5458 39.4272 34.8484 40.5176 32.9977 41.2164C33.5262 40.5817 34.0189 39.8407 34.467 38.9974C34.9433 38.1011 35.3544 37.1169 35.697 36.0658C36.9136 36.2666 38.0391 36.5149 39.0417 36.807C38.7141 37.2161 38.3626 37.6104 37.9865 37.9866ZM40.1629 35.1881C38.9982 34.8137 37.6629 34.4986 36.205 34.25C36.5985 32.5825 36.8331 30.79 36.8951 28.9385H42.0917C41.9462 31.1684 41.2844 33.2981 40.1629 35.1881Z" fill="url(#paint0_linear_1270_13176)"/>
</g>
<defs>
<linearGradient id="paint0_linear_1270_13176" x1="12.9069" y1="14.3529" x2="35.7688" y2="8.47256" gradientUnits="userSpaceOnUse">
<stop stop-color="#DB00FB"/>
<stop offset="1" stop-color="#FF6000"/>
</linearGradient>
<clipPath id="clip0_1270_13176">
<rect width="32" height="32" fill="white" transform="translate(12 12)"/>
</clipPath>
</defs>
</svg>
